# xmcd
#
# Track frame offsets:
#	182
#	14275
#	27384
#	41150
#	54373
#	68260
#	81533
#	94592
#	107732
#	120713
#	133294
#	146634
#	159909
#	173528
#	185673
#	199432
#	211941
#	224759
#	239128
#
# Disc length: 3390 seconds
# Revision: 0
# Processed by: cddbd v1.5.2PL0 Copyright (c) Steve Scherf et al.
# Submitted via: dBpowerAMP V12.0
#
DISCID=1d0d3c13
DTITLE=Various Artist - Madagascar 1929-1931 CD1
DYEAR=1997
DGENRE=Malgache
TTITLE0=De Fenoarivo Mpilalao - Ô ry namako, ô ry mba hitanareo ve ry zanako? (folklore)
TTITLE1=De Fenoarivo Mpilalao - Ny fifaliana ry lahy tsy feno raha tsy eo anita na
TTITLE2=De Fenoarivo Mpilalao - Tao anatin'lmano (folklore)
TTITLE3=De Fenoarivo Mpilalao - Arie faly aho leitsy (folklore)
TTITLE4=De Fenoarivo Mpilalao - Mampahory ny masoandro serania javona (folklore)
TTITLE5=De Fenoarivo Mpilalao - Oay lahy e (folklore)
TTITLE6=Choeur malgache - Eny arodo rodgrodoy ny famindra
TTITLE7=Orchestre Ratianarivo - Bebeso (folklore)
TTITLE8=Choeur malgache - Tery mafy loatra ny saina
TTITLE9=De Fenoarivo Mpilalao - Mazava antsinana ny any aminay (folklore)
TTITLE10=Troupe Razanalakona - Zovy (folklore)
TTITLE11=Troupe Razanalakona - Fony hianao mbola kely sakaiza (folklore)
TTITLE12=Orchestre Ratianarivo - Rambalamanana
TTITLE13=Orchestre Ratianarivo - Lahy e (folklore)
TTITLE14=De Fenoarivo Mpilalao - Ô ry dada sy neny malala ô!
TTITLE15=De Fenoarivo Mpilalao - Tanora tsy manaja tena
TTITLE16=Orchestre Ratianarivo - Ô! Ravazaha! (folklore)
TTITLE17=Troupe Razanalakona - Ô ry fody an' anala ê!
TTITLE18=Orchestre Ratianarivo - Ô ry tsiriry mandalo an'Itasy!
EXTD=
EXTT0=
EXTT1=
EXTT2=
EXTT3=
EXTT4=
EXTT5=
EXTT6=
EXTT7=
EXTT8=
EXTT9=
EXTT10=
EXTT11=
EXTT12=
EXTT13=
EXTT14=
EXTT15=
EXTT16=
EXTT17=
EXTT18=
PLAYORDER=
